# xmcd
#
# Track frame offsets:
#	150
#	12360
#	28669
#	47785
#	63874
#	80525
#	94886
#	111162
#	121912
#	134021
#	148026
#	163661
#	178006
#	194881
#	210501
#	223256
#
# Disc length: 3210 seconds
#
# Revision: 0
# Processed by: cddbd v1.5.2PL0 Copyright (c) Steve Scherf et al.
# Submitted via: EasyCDDAExtractor 12.0.0.1
#
DISCID=f40c8810
DTITLE=Dave McComb - A Farmers Dream
DYEAR=1900
DGENRE=Country
TTITLE0=May You Never Be Alone Like Me
TTITLE1=In The Shadows Of My Mind
TTITLE2=Wll You Love Me When I'm Old And Feeble
TTITLE3=Bluebird Waltz
TTITLE4=Have I told You Lately That I Love You
TTITLE5=Blue Eyes Crying In The Rain
TTITLE6=I Overlooked An Orchid
TTITLE7=That's Me Without You
TTITLE8=Mansion On The Hill
TTITLE9=Yard Sale
TTITLE10=Wild Flowers For Mary
TTITLE11=When My Blue Moon Turns to Gold Again
TTITLE12=Wedding Bells
TTITLE13=Silver Haired Daddy
TTITLE14=So Afraid of Losing You
TTITLE15=Trent Hills Cannonball
EXTD=
EXTT0=
EXTT1=
EXTT2=
EXTT3=
EXTT4=
EXTT5=
EXTT6=
EXTT7=
EXTT8=
EXTT9=
EXTT10=
EXTT11=
EXTT12=
EXTT13=
EXTT14=
EXTT15=
PLAYORDER=
